<?xml version="1.0" encoding="UTF-8"?>
<svg version="1.1" xmlns="http://www.w3.org/2000/svg" width="1080" height="1080">
<path d="M0 0 C356.4 0 712.8 0 1080 0 C1080 356.4 1080 712.8 1080 1080 C723.6 1080 367.2 1080 0 1080 C0 723.6 0 367.2 0 0 Z " fill="#FEFEFE" transform="translate(0,0)"/>
<path d="M0 0 C0.86316622 5.26153459 1.18716178 10.35964532 1.23828125 15.6875 C1.246353 16.50766602 1.25442474 17.32783203 1.26274109 18.17285156 C1.27650782 19.90411312 1.28726275 21.63540097 1.29516602 23.36669922 C1.30662827 25.1079932 1.32698774 26.84925366 1.35668945 28.59033203 C1.55290137 40.12846955 0.65816717 50.01074782 -3 61 C-3.39888428 62.24217285 -3.79776855 63.4843457 -4.20874023 64.76416016 C-8.55922119 78.01094646 -15.26110567 89.19416719 -24 100 C-24.64839844 100.80308594 -25.29679688 101.60617187 -25.96484375 102.43359375 C-40.10495353 119.11834496 -60.32353383 130.4977932 -79.83984375 139.83056641 C-91.06161702 145.2173859 -96.79133271 151.30804999 -103 162 C-103.66128906 163.08667969 -104.32257813 164.17335938 -105.00390625 165.29296875 C-109.96502118 173.5477455 -113.65064517 181.98765198 -117 191 C-117.46921875 192.23105469 -117.9384375 193.46210937 -118.421875 194.73046875 C-121.75168463 203.48696812 -124.93939471 212.29598023 -128.10888672 221.11157227 C-130.28201092 227.12822366 -132.59653006 233.07144082 -135 239 C-141.27 239 -147.54 239 -154 239 C-152.83353369 232.00120215 -150.48734937 226.14161536 -147.73828125 219.671875 C-140.70401463 202.76795611 -137.4240918 186.71762166 -144 169 C-144.24363281 168.31808594 -144.48726562 167.63617187 -144.73828125 166.93359375 C-146.9850516 162.00347682 -150.77865266 160.02694648 -155.30078125 157.51171875 C-180.80380605 143.22854856 -198.81439737 120.43354141 -207.8125 92.8125 C-208.23660165 91.21557404 -208.63225259 89.61083723 -209 88 C-209.20367188 87.13632812 -209.40734375 86.27265625 -209.6171875 85.3828125 C-211.10972755 77.67476318 -211.20743809 70.01945943 -211.25 62.1875 C-211.25926514 61.11363037 -211.26853027 60.03976074 -211.27807617 58.93334961 C-211.25430208 52.93715084 -210.74560466 47.74248517 -209 42 C-183.50249918 43.7892983 -160.25228125 57.29586893 -143.45458984 76.22753906 C-139.23699181 81.36680756 -136.01659721 87.09774579 -133 93 C-132.51015625 93.95003906 -132.0203125 94.90007812 -131.515625 95.87890625 C-122.59293364 115.23894336 -120.20687797 137.27785589 -125 158 C-127.60628261 154.68731268 -128.84803208 151.84677273 -130.125 147.8125 C-132.91986991 139.70653289 -136.8068995 132.39312931 -140.95263672 124.90673828 C-141.85659545 123.26106982 -142.73008679 121.59873318 -143.59765625 119.93359375 C-151.45899145 104.88975731 -161.9084124 92.76478794 -174 81 C-173.64808594 81.52207031 -173.29617188 82.04414063 -172.93359375 82.58203125 C-153.81613934 111.08351027 -136.826005 141.53522564 -131.27783203 175.84594727 C-130.59387167 179.92025046 -130.12581006 182.27145362 -127 185 C-126.76796875 184.35160156 -126.5359375 183.70320312 -126.296875 183.03515625 C-124.5709077 178.99576892 -122.41599081 175.25473934 -120.25 171.4375 C-117.37395624 166.32504543 -114.5536917 161.22100008 -112 155.9375 C-108.48455097 148.76796451 -104.36827866 141.96025179 -100.26708984 135.11523438 C-99.07573633 133.12643151 -97.89048524 131.13413551 -96.70703125 129.140625 C-88.19603523 114.83622513 -79.34989794 100.77143846 -70 87 C-69.54447754 86.32904297 -69.08895508 85.65808594 -68.61962891 84.96679688 C-60.74265673 73.38958094 -52.68433679 61.99111374 -44 51 C-56.47717678 59.31811785 -66.08985679 71.12078316 -75 83 C-75.50547363 83.6717627 -76.01094727 84.34352539 -76.53173828 85.03564453 C-88.00016635 100.36621862 -98.51739713 116.43413592 -107.86328125 133.1484375 C-108.23839844 133.75945312 -108.61351562 134.37046875 -109 135 C-109.33 135 -109.66 135 -110 135 C-112.1626091 103.18561723 -100.23451245 66.04718323 -79.8515625 41.40234375 C-77.62458068 38.87452403 -75.33072169 36.43222716 -73 34 C-72.24074219 33.16597656 -71.48148438 32.33195312 -70.69921875 31.47265625 C-54.54256742 14.31117226 -23.98023252 -0.8329514 0 0 Z " fill="#8EB07A" transform="translate(956,405)"/>
<path d="M0 0 C78.58744395 0 78.58744395 0 91.98828125 11.7421875 C100.31677117 20.3381878 102.75583557 30.27449855 102.58959961 41.91674805 C102.09894043 52.53639305 98.718474 61.4302086 91.25 69.125 C86.07776091 73.43519924 80.55675639 75.75771023 74 77 C80.98035797 88.85751072 87.99350669 100.69508644 95.0625 112.5 C95.69293213 113.55501709 96.32336426 114.61003418 96.97290039 115.69702148 C100.56394174 121.70372875 100.56394174 121.70372875 104.43359375 127.53125 C106 130 106 130 106 133 C94.45 133 82.9 133 71 133 C69.06125 129.266875 67.1225 125.53375 65.125 121.6875 C60.52822817 112.84046707 55.91412103 104.00310238 51.24853516 95.19213867 C50.87647949 94.48806885 50.50442383 93.78399902 50.12109375 93.05859375 C49.75226074 92.39069824 49.38342773 91.72280273 49.00341797 91.03466797 C48 89 48 89 47.32861328 86.73486328 C46.59585097 84.15262545 46.59585097 84.15262545 44 81 C37.07 80.505 37.07 80.505 30 80 C30 97.82 30 115.64 30 134 C20.1 134 10.2 134 0 134 C0 89.78 0 45.56 0 0 Z " fill="#48673F" transform="translate(384,518)"/>
<path d="M0 0 C9.9 0 19.8 0 30 0 C30 16.5 30 33 30 50 C48.81 50 67.62 50 87 50 C87 33.5 87 17 87 0 C96.9 0 106.8 0 117 0 C117 44.55 117 89.1 117 135 C107.1 135 97.2 135 87 135 C87 115.86 87 96.72 87 77 C68.19 77 49.38 77 30 77 C30 96.14 30 115.28 30 135 C20.1 135 10.2 135 0 135 C0 90.45 0 45.9 0 0 Z " fill="#4A6942" transform="translate(628,517)"/>
<path d="M0 0 C8.58 0 17.16 0 26 0 C40.6576886 32.98957114 40.6576886 32.98957114 46.5625 47.3125 C49.34203738 54.05455741 52.18935167 60.73082446 55.30078125 67.328125 C57.83165645 72.74062606 60.21599285 78.22003922 62.625 83.6875 C63.09284912 84.74573975 63.56069824 85.80397949 64.04272461 86.89428711 C66.51678017 92.51850207 68.89345843 98.16563808 71.15087891 103.88012695 C72.14992604 106.37429781 73.23842261 108.81562857 74.375 111.25 C76.40340558 115.66699532 78.38039169 120.10273133 80.3125 124.5625 C80.82425781 125.73941406 81.33601562 126.91632813 81.86328125 128.12890625 C83 131 83 131 83 133 C71.78 133 60.56 133 49 133 C47.35 128.75125 45.7 124.5025 44 120.125 C43.47792969 118.7858252 42.95585937 117.44665039 42.41796875 116.06689453 C42.01191406 115.01614746 41.60585937 113.96540039 41.1875 112.8828125 C40.55908203 111.26463623 40.55908203 111.26463623 39.91796875 109.61376953 C39 107 39 107 39 105 C21.84 105.33 4.68 105.66 -13 106 C-18.445 119.365 -18.445 119.365 -24 133 C-34.89 133 -45.78 133 -57 133 C-53.8602268 124.83658967 -50.69176068 116.8371354 -47.125 108.875 C-42.52523376 98.51215223 -38.02120237 88.11163668 -33.5625 77.6875 C-33.24543091 76.94659119 -32.92836182 76.20568237 -32.60168457 75.44232178 C-30.1024895 69.60202226 -27.60626739 63.76045424 -25.11090088 57.91851807 C-23.71512974 54.65088439 -22.3190064 51.38340301 -20.92163086 48.11645508 C-19.92778784 45.79257241 -18.93502088 43.46822909 -17.94360352 41.14331055 C-15.44396369 35.29853143 -12.87283496 29.49454623 -10.22753906 23.71435547 C-8.14527204 19.11001085 -6.16775003 14.46140671 -4.1875 9.8125 C-2.805625 6.574375 -1.42375 3.33625 0 0 Z " fill="#48673F" transform="translate(151,518)"/>
<path d="M0 0 C30.03 0 60.06 0 91 0 C91 9.24 91 18.48 91 28 C70.87 28 50.74 28 30 28 C30 36.25 30 44.5 30 53 C49.14 53 68.28 53 88 53 C88 61.91 88 70.82 88 80 C68.86 80 49.72 80 30 80 C30 88.91 30 97.82 30 107 C51.45 107 72.9 107 95 107 C95 116.24 95 125.48 95 135 C63.65 135 32.3 135 0 135 C0 90.45 0 45.9 0 0 Z " fill="#496841" transform="translate(257,517)"/>
<path d="M0 0 C1.71570394 1.61614218 3.39844217 3.2706741 5 5 C4.29653442 5.7410498 4.29653442 5.7410498 3.57885742 6.49707031 C1.44625797 8.74602216 -0.68314626 10.99797498 -2.8125 13.25 C-3.55048828 14.02730469 -4.28847656 14.80460938 -5.04882812 15.60546875 C-6.11713867 16.73662109 -6.11713867 16.73662109 -7.20703125 17.890625 C-7.8616333 18.58188477 -8.51623535 19.27314453 -9.19067383 19.98535156 C-10.92321757 21.9145043 -12.47949248 23.90132927 -14 26 C-17.14673342 25.3846388 -19.24743567 24.31502436 -21.875 22.5 C-25.36073457 20.28470715 -27.80240286 19.24216907 -32 19 C-33.36511719 18.9071875 -33.36511719 18.9071875 -34.7578125 18.8125 C-42.64041129 18.49640581 -47.94058809 19.5748712 -54 24.6875 C-55.62095483 28.43595804 -55.62482852 31.99247912 -55 36 C-51.97577813 41.670416 -46.18829494 43.98122935 -40.29296875 45.86499023 C-37.28478435 46.70534861 -34.26887095 47.51143528 -31.25 48.3125 C-18.59356395 51.85013803 -6.04191338 56.30699172 1.2734375 68.04296875 C6.22680278 77.40518044 6.40574643 88.59531416 4.1640625 98.80859375 C0.50676833 110.01365943 -5.1849741 118.18196249 -15.63671875 123.828125 C-16.41660156 124.21484375 -17.19648437 124.6015625 -18 125 C-19.11375 125.556875 -20.2275 126.11375 -21.375 126.6875 C-36.18525734 132.04983455 -54.02496132 134.04854983 -69 128 C-69.89460937 127.6596875 -70.78921875 127.319375 -71.7109375 126.96875 C-78.89778663 123.98932795 -84.88487998 119.76671832 -91 115 C-89.70176525 111.18437605 -88.25033142 108.92909121 -85.3125 106.1875 C-81.85664248 102.87589788 -78.70884049 99.43315136 -75.640625 95.76171875 C-73.90737499 93.90053838 -72.07355573 92.4650122 -70 91 C-69.53851562 91.45890625 -69.07703125 91.9178125 -68.6015625 92.390625 C-60.38637086 100.11874994 -52.73185367 102.7819631 -41.421875 102.4609375 C-36.34429237 101.77697089 -32.13089022 100.02988848 -28 97 C-25.30393366 92.95590048 -25.3469095 89.74746558 -26 85 C-30.47824576 76.6032892 -42.34944514 74.43956147 -50.75 71.6875 C-64.42890321 67.05688373 -76.43861632 62.69407609 -84.30859375 49.8671875 C-88.80517499 40.68731577 -88.55080452 28.51828843 -85.375 18.9375 C-80.79324774 8.36913765 -72.68663131 -0.25735256 -62.0625 -4.8125 C-60.04916395 -5.56211946 -58.02854019 -6.29255666 -56 -7 C-55.19949219 -7.3196875 -54.39898438 -7.639375 -53.57421875 -7.96875 C-36.56246172 -14.14444667 -14.85954084 -9.51787583 0 0 Z " fill="#486740" transform="translate(991,524)"/>
<path d="M0 0 C34.98 0 69.96 0 106 0 C106 8.58 106 17.16 106 26 C93.46 26 80.92 26 68 26 C68 61.64 68 97.28 68 134 C58.1 134 48.2 134 38 134 C38 98.36 38 62.72 38 26 C25.46 26 12.92 26 0 26 C0 17.42 0 8.84 0 0 Z " fill="#496740" transform="translate(499,518)"/>
<path d="M0 0 C4.41375 -0.103125 8.8275 -0.20625 13.375 -0.3125 C15.43113525 -0.38078003 15.43113525 -0.38078003 17.52880859 -0.45043945 C25.33414354 -0.53809537 31.61572802 0.21615578 38 5 C41.67757268 9.22264703 41.55519118 12.61216164 41.421875 18.078125 C40.7794791 22.52731142 39.37639008 24.08402675 36 27 C31.24616719 30.22033835 25.29244606 30.12521013 19.7265625 30.09765625 C18.16542725 30.09390991 18.16542725 30.09390991 16.57275391 30.09008789 C15.26999512 30.08098389 13.96723633 30.07187988 12.625 30.0625 C8.45875 30.041875 4.2925 30.02125 0 30 C0 20.1 0 10.2 0 0 Z " fill="#FBFDFB" transform="translate(414,543)"/>
<path d="M0 0 C0.66 0 1.32 0 2 0 C11.65355537 24.04255202 11.65355537 24.04255202 15.125 32.9375 C15.49882812 33.89527344 15.87265625 34.85304688 16.2578125 35.83984375 C17 38 17 38 17 40 C6.77 40 -3.46 40 -14 40 C-12.875 33.25 -12.875 33.25 -11.69311523 30.19775391 C-11.43292099 29.51750153 -11.17272675 28.83724915 -10.90464783 28.13638306 C-10.62544998 27.42364227 -10.34625214 26.71090149 -10.05859375 25.9765625 C-9.77146011 25.23038666 -9.48432648 24.48421082 -9.18849182 23.71542358 C-8.27680874 21.34985577 -7.35729089 18.9874255 -6.4375 16.625 C-5.81523393 15.01452424 -5.19348364 13.40384908 -4.57226562 11.79296875 C-3.05413629 7.85964658 -1.52897647 3.92911764 0 0 Z " fill="#F7F9F6" transform="translate(162,558)"/>
<path d="M0 0 C17.16 0 34.32 0 52 0 C52 0.33 52 0.66 52 1 C51.38247864 1.00586624 50.76495728 1.01173248 50.12872314 1.01777649 C43.70465317 1.08168344 37.28108542 1.16609622 30.85742188 1.26245117 C28.45970275 1.29571677 26.06190501 1.32374355 23.6640625 1.34643555 C20.21840901 1.3799508 16.77347705 1.43226655 13.328125 1.48828125 C11.71855927 1.49786613 11.71855927 1.49786613 10.07647705 1.50764465 C9.07574158 1.52743881 8.0750061 1.54723297 7.04394531 1.56762695 C5.72490204 1.58428154 5.72490204 1.58428154 4.37921143 1.60127258 C1.54947213 2.07550309 0.1369486 3.13166993 -2 5 C-1.34 3.35 -0.68 1.7 0 0 Z " fill="#DBE9D8" transform="translate(138,623)"/>
<path d="M0 0 C0.66 0.33 1.32 0.66 2 1 C1.57702637 1.41773682 1.15405273 1.83547363 0.71826172 2.26586914 C-1.23223303 4.19533071 -3.17862542 6.12888256 -5.125 8.0625 C-5.79015625 8.71927734 -6.4553125 9.37605469 -7.140625 10.05273438 C-11.31564446 14.20728805 -15.22503899 18.47827879 -19 23 C-19 19.05614091 -17.77501782 18.29383408 -15.125 15.4375 C-14.31417969 14.56222656 -13.50335937 13.68695313 -12.66796875 12.78515625 C-8.51620793 8.45103405 -4.28411311 4.20361829 0 0 Z " fill="#9BB68D" transform="translate(893,429)"/>
<path d="M0 0 C0 3.31766523 -0.45250948 4.0703452 -2.3125 6.6875 C-2.74175781 7.31011719 -3.17101562 7.93273437 -3.61328125 8.57421875 C-4.07089844 9.04472656 -4.52851562 9.51523437 -5 10 C-5.99 10 -6.98 10 -8 10 C-9.66756036 11.30436727 -9.66756036 11.30436727 -11.1875 13 C-11.71730469 13.556875 -12.24710938 14.11375 -12.79296875 14.6875 C-13.19128906 15.120625 -13.58960938 15.55375 -14 16 C-14.66 15.67 -15.32 15.34 -16 15 C-14.27399233 13.2467873 -12.54435703 11.49741929 -10.8125 9.75 C-10.08836914 9.01330078 -10.08836914 9.01330078 -9.34960938 8.26171875 C-6.38591145 5.27813023 -3.342921 2.56677663 0 0 Z " fill="#E4F1DC" transform="translate(912,454)"/>
<path d="M0 0 C0.33 0 0.66 0 1 0 C1 3.63 1 7.26 1 11 C1.66 11 2.32 11 3 11 C2.34 12.65 1.68 14.3 1 16 C0.67 16 0.34 16 0 16 C0 10.72 0 5.44 0 0 Z " fill="#A5BC98" transform="translate(846,524)"/>
<path d="M0 0 C2.31 1.98 4.62 3.96 7 6 C6.01 7.485 6.01 7.485 5 9 C4.16094435 7.87926138 3.32892169 6.75325453 2.5 5.625 C2.0359375 4.99851562 1.571875 4.37203125 1.09375 3.7265625 C0 2 0 2 0 0 Z " fill="#E1F1D7" transform="translate(781,485)"/>
</svg>
